<svg xmlns="http://www.w3.org/2000/svg" width="677" height="597" fill="none" viewBox="0 0 677 597"><path fill="url(#paint0_linear_102_3)" d="M209.556 561.82C203.88 562.933 197.091 565.38 196.423 571.164C195.644 577.615 203.547 581.397 209.891 582.732C233.821 587.96 258.53 588.628 283.127 589.295C413.127 592.41 543.128 592.966 673.13 590.853C671.239 574.946 652.314 568.049 636.621 565.046C569.172 552.143 499.386 559.484 433.162 545.803C363.376 531.23 278.452 547.694 209.556 561.82Z"/><path fill="url(#paint1_linear_102_3)" d="M209.556 561.82C203.88 562.933 197.091 565.38 196.423 571.164C195.644 577.615 203.547 581.397 209.891 582.732C233.821 587.96 258.53 588.628 283.127 589.295C413.127 592.41 543.128 592.966 673.13 590.853C671.239 574.946 652.314 568.049 636.621 565.046C569.172 552.143 499.386 559.484 433.162 545.803C363.376 531.23 278.452 547.694 209.556 561.82Z"/><path fill="#DDC199" d="M563.597 457.035C565.044 456.591 566.602 457.036 568.049 457.481C574.394 459.595 580.627 462.375 586.192 466.045C588.975 467.826 591.757 469.828 593.092 472.831C594.317 475.613 594.206 478.727 593.983 481.619C591.979 517.437 590.087 553.366 588.084 589.184C587.972 591.52 587.639 594.079 585.858 595.525C583.632 597.193 580.516 596.081 578.067 594.968C554.137 584.512 530.319 573.945 506.389 563.488C494.925 558.483 483.126 553.144 474.667 543.911C481.123 529.672 494.702 520.218 507.168 510.651C526.535 495.745 544.342 478.616 560.036 459.928C560.927 458.816 562.039 457.48 563.597 457.035Z"/><path fill="#BDB39B" d="M676.35 272.496C670.449 271.161 664.436 269.826 658.539 268.491C623.813 332.229 593.094 398.193 566.604 465.824C572.725 469.718 580.85 473.721 586.749 469.495C589.198 467.715 590.645 464.823 591.981 462.042C622.032 399.75 650.191 336.568 676.35 272.496Z"/><g opacity=".26"><path fill="#272525" d="M566.92 582.621C566.808 583.845 568.701 584.289 568.923 583.066C573.709 546.914 580.498 511.43 589.291 476.057C589.847 473.832 586.397 473.165 585.841 475.39C576.714 510.429 570.37 546.469 566.92 582.621Z" opacity=".26"/><path fill="#272525" d="M529.208 566.714C543.899 535.791 559.481 505.312 575.954 475.279C576.956 473.499 574.062 472.053 573.061 473.832C555.92 504.089 540.449 535.235 526.314 566.937C526.536 567.159 526.647 567.382 526.758 567.604C527.538 567.048 528.317 566.826 529.208 566.714Z" opacity=".26"/><path fill="#272525" d="M505.261 546.357C529.859 523.22 551.786 497.525 570.929 469.716C572.154 467.824 569.037 466.267 567.813 468.158C549.003 495.856 527.41 521.44 503.258 544.577C502.033 545.801 504.037 547.581 505.261 546.357Z" opacity=".26"/></g><path fill="#2F3F47" d="M334.65 488.737C334.762 487.069 334.984 485.289 335.095 483.62C320.404 473.609 294.582 476.835 279 481.951C262.304 487.402 262.304 497.636 262.527 514.989C262.638 524.778 263.528 535.79 271.097 542.13C276.884 547.025 285.01 547.692 292.578 548.137C299.367 548.582 306.046 548.916 312.835 549.36C317.51 549.583 322.741 549.694 326.414 546.691C330.087 543.577 330.644 538.348 331.089 533.565C332.313 518.548 333.537 503.643 334.65 488.737Z"/><path fill="#2F3F47" d="M352.583 488.737C352.472 487.069 352.249 485.289 352.138 483.62C366.829 473.609 392.652 476.835 408.234 481.951C424.929 487.402 424.929 497.636 424.707 514.989C424.595 524.778 423.704 535.79 416.136 542.13C410.348 547.025 402.224 547.692 394.655 548.137C387.865 548.582 381.188 548.916 374.398 549.36C369.723 549.583 364.492 549.694 360.819 546.691C357.147 543.577 356.59 538.348 356.145 533.565C355.032 518.548 353.808 503.643 352.583 488.737Z"/><path fill="#516770" d="M227.235 451.585C223.562 452.364 220 453.476 216.55 454.922C213.99 455.923 211.43 457.258 209.649 459.26C207.201 462.152 206.533 466.158 206.087 470.051C205.531 475.168 205.308 480.284 205.42 485.401C205.42 489.739 205.754 494.189 207.98 497.86C211.097 502.977 217.218 505.312 223.006 506.758C234.024 509.54 245.488 510.206 256.841 510.763C325.514 514.1 394.41 511.874 462.749 504.2C465.532 503.866 468.648 503.422 470.54 501.308C471.653 500.084 472.21 498.415 472.766 496.858C476.328 485.512 478.666 470.051 470.986 459.483C464.419 450.473 452.287 455.589 443.161 455.478C433.811 455.367 424.35 454.588 415.001 454.255C396.747 453.476 378.494 452.697 360.241 452.141C334.53 451.251 308.708 450.473 282.997 449.806C265.634 449.472 245.155 447.581 227.235 451.585Z"/><path fill="#EAF1F2" d="M374.825 207.422C421.46 207.645 467.985 208.646 514.62 209.647C513.507 184.842 511.726 160.036 506.384 135.786C497.146 93.2946 475.999 51.8037 440.27 26.9981C385.51 -11.0446 298.584 -6.03925 239.594 31.5585C214.773 47.354 194.851 69.0451 184.388 95.6302C172.368 125.998 169.139 159.146 167.248 191.739C167.025 196.077 166.802 200.304 166.58 204.642C235.809 201.972 305.484 207.2 374.825 207.422Z"/><path fill="#E2ECED" d="M371.093 219.882C302.754 219.77 234.192 214.876 165.852 217.323C162.513 291.407 165.63 365.824 175.202 439.462C176.538 449.585 178.207 460.152 184.885 468.16C195.236 480.507 213.155 475.057 227.068 475.057C250.553 475.057 274.706 476.058 298.413 476.614C343.157 477.615 387.566 477.727 432.087 472.721C453.234 470.386 495.974 476.837 506.102 457.815C514.45 442.354 510.999 410.985 512.224 393.743C513.67 373.276 514.784 352.92 515.451 332.453C516.676 295.633 516.453 258.814 515.006 221.884C467.146 220.994 419.064 219.882 371.093 219.882Z"/><path fill="#2F3F47" d="M532.492 339.794C533.383 339.016 533.495 337.681 533.606 336.569C535.943 305.757 537.946 274.944 539.393 244.131C539.505 241.461 539.505 238.347 537.39 236.567C535.832 235.343 533.828 235.233 531.825 235.233C524.924 235.121 518.135 235.01 511.234 235.01C506.893 270.05 505.112 305.311 506.002 340.573C513.682 340.573 521.251 340.685 528.931 340.685C530.155 340.685 531.491 340.685 532.492 339.794Z"/><path fill="#2F3F47" d="M567.971 410.764C568.861 408.206 569.863 405.536 571.866 403.646C573.424 402.2 575.538 401.309 577.542 400.642C586.224 397.527 595.128 395.191 604.144 393.634C611.155 398.417 617.5 404.091 622.954 410.653C623.955 411.877 624.957 413.212 625.18 414.769C625.402 415.993 625.068 417.216 624.734 418.44C621.173 432.122 617.722 445.804 614.161 459.486C608.93 460.154 603.698 460.265 598.578 459.597C600.581 451.254 602.585 442.912 604.477 434.68C606.37 426.782 607.817 417.105 601.807 411.543C595.685 413.101 589.674 414.769 583.553 416.327C582.551 416.549 581.438 416.882 580.547 417.55C579.546 418.44 579.101 419.775 578.655 420.998C576.095 428.785 574.203 436.794 572.867 444.914C568.972 443.802 565.077 442.8 561.181 441.688C560.847 431.12 564.408 420.776 567.971 410.764Z"/><path fill="#516770" d="M615.272 398.751C615.605 398.417 615.716 397.973 615.828 397.639C616.941 392.633 618.054 387.627 619.278 382.733C611.487 380.953 603.474 379.729 595.572 379.062C594.347 383.178 593.568 387.516 593.234 391.854C593.122 392.744 593.122 393.857 593.79 394.524C594.235 394.969 594.792 395.08 595.349 395.303C601.248 397.083 607.369 398.417 613.602 399.195C614.048 399.084 614.715 399.196 615.272 398.751Z"/><path fill="#E2ECED" d="M623.074 379.286C627.749 371.388 623.965 350.587 623.965 342.244C623.853 330.787 623.853 319.219 621.182 308.095C618.511 296.971 613.057 286.071 604.041 279.062C598.921 275.058 592.911 272.5 586.678 270.387C568.091 264.046 548.168 261.933 528.69 264.269C527.132 264.491 525.463 264.713 524.35 265.826C523.125 266.938 522.902 268.718 522.68 270.387C521.789 276.727 520.565 283.734 520.899 290.186C521.456 301.532 519.119 298.418 527.355 301.644C533.699 304.091 545.608 302.089 552.843 303.757C561.302 305.648 569.538 308.54 577.774 311.432C583.005 313.212 588.57 315.437 591.242 320.22C592.689 322.778 593.134 325.893 593.468 328.897C595.471 346.695 596.362 364.603 596.25 382.512C596.25 385.626 619.178 384.069 622.184 380.621C622.517 380.176 622.74 379.731 623.074 379.286Z"/><g opacity=".15"><path fill="#272525" d="M584.11 275.504C583.442 286.183 580.66 295.861 576.43 305.649C575.651 307.541 577.988 308.987 579.213 307.318C585.89 297.975 589.341 286.851 590.566 275.504C591.011 271.5 584.444 271.388 584.11 275.504Z" opacity=".15"/><path fill="#272525" d="M601.144 283.179C599.252 293.524 594.578 300.31 587.232 307.651C586.23 308.652 587.565 310.321 588.678 309.542C593.687 306.427 598.361 304.426 601.923 299.42C605.262 294.748 607.488 289.742 608.156 284.069C608.601 280.176 601.923 279.286 601.144 283.179Z" opacity=".15"/></g><path fill="#2F3F47" d="M154.928 235.9C154.038 236.679 153.927 238.014 153.816 239.126C151.478 269.938 149.475 300.751 148.028 331.563C147.917 334.233 147.917 337.347 150.031 339.127C151.59 340.35 153.593 340.462 155.596 340.462C162.497 340.573 169.286 340.685 176.187 340.685C180.527 305.645 182.309 270.383 181.418 235.121C173.738 235.121 166.17 235.01 158.49 235.01C157.266 235.01 155.819 235.01 154.928 235.9Z"/><path fill="#2F3F47" d="M68.6564 197.968C68.9903 200.638 69.3235 203.53 68.3219 205.977C67.5427 207.98 66.0963 209.648 64.5381 211.206C58.1939 217.768 51.2933 223.887 43.8362 229.337C35.3772 228.225 27.1409 225.889 19.461 222.441C18.0141 221.773 16.4555 221.106 15.5651 219.771C14.8973 218.77 14.5635 217.545 14.3409 216.322C11.4471 202.529 8.4422 188.625 5.54834 174.831C9.88912 171.939 14.5638 169.492 19.461 167.712C21.3532 176.055 23.3561 184.397 25.2483 192.74C27.1404 200.638 30.1457 209.981 37.9368 212.206C42.7228 208.091 47.3978 203.975 52.1838 199.86C52.9628 199.192 53.8533 198.414 54.2985 197.413C54.855 196.189 54.6318 194.742 54.4092 193.407C53.1849 185.288 51.4042 177.278 48.9556 169.381C52.9624 168.602 56.8581 167.823 60.865 167.045C65.9848 176.5 67.3204 187.401 68.6564 197.968Z"/><path fill="#516770" d="M31.6801 229.67C31.5688 230.115 31.6801 230.561 31.6801 230.894C32.9045 235.9 34.1288 240.794 35.2419 245.8C43.033 243.908 50.7127 241.461 58.17 238.569C57.5022 234.342 56.2777 230.115 54.6083 226.11C54.2744 225.221 53.8295 224.331 52.9391 223.997C52.3826 223.774 51.8257 223.886 51.1579 223.997C45.0364 224.998 39.0261 226.556 33.1271 228.558C32.5706 228.78 31.9028 229.114 31.6801 229.67Z"/><path fill="#E2ECED" d="M33.3762 250.585C32.5971 259.706 45.2852 276.614 49.0694 284.178C54.1893 294.412 59.4208 304.757 66.7668 313.544C74.1129 322.332 83.7953 329.673 95.0369 331.898C101.381 333.233 107.948 332.9 114.404 332.01C133.881 329.451 152.691 322.554 169.053 311.765C170.388 310.875 171.724 309.985 172.281 308.427C172.837 306.871 172.281 305.202 171.835 303.533C169.721 297.415 167.828 290.63 164.601 284.957C159.035 275.057 162.597 276.836 153.693 277.504C146.904 278.06 137.109 285.18 129.874 286.959C121.415 289.073 112.734 290.074 104.164 291.186C98.7099 291.853 92.6999 292.41 88.1361 289.296C85.6876 287.627 83.9068 285.068 82.3484 282.51C72.6653 267.493 63.8725 251.809 55.9701 235.68C54.6345 232.899 34.8227 244.468 33.5983 248.917C33.4871 249.584 33.3762 250.029 33.3762 250.585Z"/><g opacity=".15"><path fill="#272525" d="M114.27 326.222C110.151 316.322 108.371 306.422 107.703 295.744C107.592 293.63 104.809 293.408 104.475 295.522C102.694 306.868 104.476 318.324 108.483 329.003C109.93 332.896 115.939 330.004 114.27 326.222Z" opacity=".15"/><path fill="#272525" d="M95.7032 327.002C92.8094 316.88 93.9225 308.76 97.261 298.86C97.7064 297.525 95.8141 296.635 95.0349 297.747C92.0302 302.753 88.691 306.646 87.6894 312.653C86.7994 318.326 87.0217 323.776 89.0248 329.115C90.3609 333.009 96.7048 330.784 95.7032 327.002Z" opacity=".15"/></g><path fill="#2F3F47" d="M197.661 134.675C197.772 138.901 197.994 143.24 199.775 147.133C204.338 156.811 216.359 159.925 226.932 161.705C287.369 171.827 349.141 175.276 409.912 167.6C417.926 166.6 425.94 165.376 433.286 162.039C440.632 158.702 447.198 153.028 449.87 145.576C451.539 140.793 451.651 135.676 451.761 130.559C451.873 125.442 451.873 120.214 451.984 115.097C451.984 112.761 451.984 110.425 451.094 108.2C450.092 105.865 448.089 103.974 445.974 102.527C437.961 97.0769 427.832 95.853 418.149 94.8521C353.817 88.4005 288.705 82.7276 224.707 91.404C222.035 91.7377 219.252 92.1821 217.36 94.0733C216.359 94.9635 215.691 96.1873 214.689 97.0769C212.797 98.5229 210.238 98.4115 208.012 99.1903C201.778 101.193 199.552 108.868 198.773 115.431C197.883 121.771 197.549 128.223 197.661 134.675Z"/><path fill="#EAF1F2" d="M278.23 144.017C280.345 140.124 280.679 135.563 280.234 131.115C280.011 128.445 279.343 125.664 277.674 123.662C274.112 119.435 267.546 119.88 262.092 118.879C257.306 120.881 253.298 124.774 251.295 129.557C250.07 132.449 249.514 135.563 249.848 138.678C250.627 145.019 255.859 150.47 262.092 151.582C268.436 152.917 275.226 149.69 278.23 144.017Z" opacity=".2"/><path fill="#EAF1F2" d="M384.219 144.017C386.333 140.124 386.667 135.563 386.222 131.115C385.999 128.445 385.332 125.664 383.662 123.662C380.1 119.435 373.534 119.88 368.08 118.879C363.294 120.881 359.287 124.774 357.283 129.557C356.059 132.449 355.503 135.563 355.836 138.678C356.616 145.019 361.847 150.47 368.08 151.582C374.313 152.917 381.102 149.69 384.219 144.017Z" opacity=".2"/><defs><linearGradient id="paint0_linear_102_3" x1="196.443" x2="673.257" y1="566.102" y2="566.102" gradientUnits="userSpaceOnUse"><stop stop-color="#4D4D4D"/><stop offset="1"/></linearGradient><linearGradient id="paint1_linear_102_3" x1="196.443" x2="673.257" y1="566.102" y2="566.102" gradientUnits="userSpaceOnUse"><stop/><stop offset="1"/></linearGradient></defs></svg>